<?xml version="1.0" standalone="no"?><!DOCTYPE svg PUBLIC "-//W3C//DTD SVG 1.1//EN" "http://www.w3.org/Graphics/SVG/1.1/DTD/svg11.dtd"><svg t="1729738513340" class="icon" viewBox="0 0 1024 1024" version="1.1" xmlns="http://www.w3.org/2000/svg" p-id="15874" xmlns:xlink="http://www.w3.org/1999/xlink" width="64" height="64"><path d="M853.312 0h-682.666667c-93.866667 0-170.666667 76.8-170.666666 170.666667v682.666666c0 93.866667 76.8 170.666667 170.666666 170.666667h682.666667c93.866667 0 170.666667-76.8 170.666667-170.666667V170.666667c0-93.866667-76.8-170.666667-170.666667-170.666667zM613.333333 621.44c3.626667 1.450667 6.933333 3.797333 9.429334 7.146667 2.965333 3.968 4.309333 8.618667 4.266666 13.226666a19.754667 19.754667 0 0 1-0.170666 2.965334 21.333333 21.333333 0 0 1-3.712 10.176 21.802667 21.802667 0 0 1-9.130667 7.402666L421.333333 806.4c-0.234667 0.170667-0.512 0.298667-0.746666 0.448l-0.512 0.298667a21.589333 21.589333 0 0 1-11.818667 3.52h-0.021333c-1.429333 0-2.837333-0.149333-4.245334-0.426667l-0.426666-0.106667a22.272 22.272 0 0 1-3.626667-1.130666l-0.554667-0.256a22.314667 22.314667 0 0 1-3.136-1.706667l-0.597333-0.426667a20.693333 20.693333 0 0 1-2.624-2.154666l-0.725333-0.789334c-0.533333-0.554667-1.088-1.066667-1.557334-1.706666-0.170667-0.213333-0.256-0.469333-0.426666-0.704l-0.704-1.152a21.034667 21.034667 0 0 1-1.386667-2.538667c-0.192-0.426667-0.298667-0.896-0.469333-1.322667a24.405333 24.405333 0 0 1-0.832-2.688c-0.128-0.533333-0.149333-1.066667-0.234667-1.6a21.418667 21.418667 0 0 1-0.256-2.624c0-0.192-0.064-0.341333-0.064-0.533333V563.392l-138.730667 96.96a21.845333 21.845333 0 1 1-25.024-35.818667l159.424-111.445333-159.424-111.445333a21.866667 21.866667 0 0 1 25.024-35.818667l138.752 96.96V235.178667l0.042667-0.512c0.021333-0.789333 0.128-1.6 0.234667-2.389334 0.085333-0.64 0.128-1.28 0.277333-1.898666 0.149333-0.682667 0.405333-1.344 0.618667-2.005334 0.234667-0.704 0.426667-1.408 0.725333-2.069333 0.234667-0.554667 0.576-1.088 0.874667-1.621333 0.405333-0.725333 0.789333-1.450667 1.28-2.133334 0.106667-0.128 0.149333-0.298667 0.256-0.426666 0.277333-0.384 0.64-0.661333 0.938666-1.024a18.133333 18.133333 0 0 1 4.970667-4.352 19.029333 19.029333 0 0 1 1.834667-1.002667c0.64-0.32 1.28-0.64 1.962666-0.896 0.661333-0.256 1.322667-0.426667 2.005334-0.618667 0.682667-0.192 1.365333-0.384 2.069333-0.490666a21.077333 21.077333 0 0 1 2.304-0.234667c0.533333-0.064 1.002667-0.170667 1.493333-0.170667l0.512 0.064c0.789333 0.021333 1.6 0.128 2.389334 0.234667 0.64 0.085333 1.301333 0.149333 1.92 0.277333 0.682667 0.149333 1.344 0.405333 2.005333 0.618667 0.704 0.234667 1.408 0.426667 2.069333 0.725333 0.576 0.256 1.109333 0.597333 1.642667 0.896 0.725333 0.405333 1.429333 0.789333 2.112 1.258667 0.149333 0.085333 0.298667 0.149333 0.426667 0.256l196.992 147.221333c5.909333 4.416 8.917333 11.264 8.725333 18.112a21.76 21.76 0 0 1-9.28 18.645334l-159.424 111.445333 154.965333 108.352z m59.285334-15.466667a20.629333 20.629333 0 0 1-35.690667-2.410666 20.608 20.608 0 0 1 1.386667-20.608 132.266667 132.266667 0 0 0 22.357333-73.834667 132.096 132.096 0 0 0-22.357333-73.856 20.672 20.672 0 0 1 34.325333-23.018667 173.44 173.44 0 0 1 29.354667 96.874667 173.376 173.376 0 0 1-29.376 96.853333z m89.664 65.984a20.693333 20.693333 0 0 1-34.346667-23.018666 245.610667 245.610667 0 0 0 41.408-136.661334 244.992 244.992 0 0 0-41.408-136.661333 20.693333 20.693333 0 0 1 34.346667-22.997333A286.4 286.4 0 0 1 810.666667 512.298667a286.250667 286.250667 0 0 1-48.384 159.658666z m-332.181334-125.290666l137.322667 96-137.322667 102.634666v-198.634666z m0-267.882667l138.816 103.722667-138.816 97.024v-200.746667z" fill="#4278F5" p-id="15875"></path></svg>