<?xml version="1.0" standalone="no"?><!DOCTYPE svg PUBLIC "-//W3C//DTD SVG 1.1//EN" "http://www.w3.org/Graphics/SVG/1.1/DTD/svg11.dtd"><svg t="1729739774541" class="icon" viewBox="0 0 1024 1024" version="1.1" xmlns="http://www.w3.org/2000/svg" p-id="35114" xmlns:xlink="http://www.w3.org/1999/xlink" width="64" height="64"><path d="M703.548235 560.188235a78.305882 78.305882 0 0 0-6.927059 156.310589 81.618824 81.618824 0 0 0 81.92-78.305883 78.305882 78.305882 0 0 0-74.992941-78.004706z m0 0a78.305882 78.305882 0 0 0-6.927059 156.310589 81.618824 81.618824 0 0 0 81.92-78.305883 78.305882 78.305882 0 0 0-74.992941-78.004706z m156.310589-466.823529H164.141176a88.545882 88.545882 0 0 0-90.352941 87.341176v662.588236a88.244706 88.244706 0 0 0 90.352941 86.13647h696.018824a88.244706 88.244706 0 0 0 90.352941-86.437647V180.705882a88.244706 88.244706 0 0 0-90.654117-87.341176zM538.503529 287.924706A64.451765 64.451765 0 0 1 602.352941 223.774118a63.548235 63.548235 0 0 1 63.849412 62.945882A64.451765 64.451765 0 0 1 602.352941 350.870588a62.945882 62.945882 0 0 1-64.752941-60.235294z m-205.101176 475.557647a124.988235 124.988235 0 0 1-7.228235-249.976471h2.710588a124.988235 124.988235 0 0 1 4.517647 249.976471z m217.750588-302.983529l-49.392941-47.887059-39.755294 39.152941 71.981176 70.174118a34.334118 34.334118 0 0 1 9.938824 24.094117v129.505883a34.334118 34.334118 0 0 1-34.032941 34.334117 37.345882 37.345882 0 0 1-34.334118-35.237647v-115.350588l-86.437647-83.727059a35.237647 35.237647 0 0 1 0-48.489412l88.244706-86.13647a34.635294 34.635294 0 0 1 48.489412 0l62.945882 62.042353h90.352941a33.731765 33.731765 0 1 1 1.807059 67.463529h-105.411765a36.141176 36.141176 0 0 1-24.395294-9.938823z m153.6 302.983529a124.988235 124.988235 0 0 1-7.228235-249.976471 124.988235 124.988235 0 0 1 6.927059 249.976471z m0-203.294118a78.305882 78.305882 0 0 0-6.927059 156.310589 81.618824 81.618824 0 0 0 81.92-78.305883 78.305882 78.305882 0 0 0-76.197647-78.004706z m-376.470588 0h-2.409412a78.305882 78.305882 0 0 0-78.305882 78.305883 79.209412 79.209412 0 0 0 80.715294 77.703529 78.305882 78.305882 0 1 0 0-156.611765z" fill="#FFAA44" p-id="35115"></path></svg>